<?xml version="1.0" encoding="utf-8"?>
<!-- Generator: Adobe Illustrator 19.1.0, SVG Export Plug-In . SVG Version: 6.00 Build 0)  -->
<svg version="1.1" id="Layer_1" xmlns="http://www.w3.org/2000/svg" xmlns:xlink="http://www.w3.org/1999/xlink" x="0px" y="0px"
	 viewBox="0 0 64 64" enable-background="new 0 0 64 64" xml:space="preserve">
<g id="Love-story-photo">
	<path d="M35.1904984,19.2411995C33.9536018,19.4452991,32.8574982,20.0820007,32,21.0771008
		c-0.8574009-0.9951-1.9545994-1.6328011-3.1919003-1.8359013c-1.5560989-0.2538986-3.1424999,0.2227001-4.238699,1.277401
		c-2.0313015,1.9549999-2.1075001,5.5995998-0.2066002,9.2607002c1.4307003,2.9482002,5.0611,5.5811005,7.0977001,6.8886986
		c0.1644993,0.1054001,0.3519993,0.1581993,0.539999,0.1581993s0.3759995-0.0527992,0.5405006-0.1581993
		c2.0362091-1.3075981,5.6660995-3.9423981,7.0830994-6.8642998c1.9150009-3.6854992,1.8387985-7.3300991-0.1938896-9.285099
		C38.3330002,19.4619007,36.7461014,18.9873009,35.1904984,19.2411995z M37.8368988,28.9062996
		c-1.1278992,2.3250999-4.1415977,4.5839005-5.8363991,5.7236023c-1.6957989-1.1387024-4.7108994-3.3994026-5.8500996-5.7481022
		c-1.449192-2.7910004-1.5287991-5.6376991-0.1942997-6.9218006c0.5219994-0.5029984,1.2700005-0.7851982,2.033699-0.7851982
		c0.1645012,0,0.330101,0.0136986,0.4946003,0.039999c1.081501,0.1777992,2.0156002,0.9258003,2.6289005,2.1054993
		c0.3442993,0.6621017,1.4306984,0.6621017,1.77491,0c0.6122894-1.1796989,1.5453911-1.9277,2.6264877-2.1054993
		c0.9267006-0.1483994,1.8935127,0.1338005,2.528801,0.7451992C39.3793983,23.2441006,39.2993011,26.0907993,37.8368988,28.9062996z
		"/>
	<path d="M12.000001,48h40c0.5522995,0,1-0.4473,1-1V7c0-0.5527-0.4477005-1-1-1h-40c-0.5522003,0-1,0.4473-1,1v40
		C11.000001,47.5527,11.4478006,48,12.000001,48z M13.000001,8h38v38h-38V8z"/>
	<path d="M58,0h-52c-0.5521998,0-1,0.4473-1,1v62c0,0.5527,0.4478002,1,1,1h52c0.5522995,0,1-0.4473,1-1V1
		C59,0.4473,58.5522995,0,58,0z M57,62h-50V2h50V62z"/>
</g>
<g>
</g>
<g>
</g>
<g>
</g>
<g>
</g>
<g>
</g>
<g>
</g>
<g>
</g>
<g>
</g>
<g>
</g>
<g>
</g>
<g>
</g>
<g>
</g>
<g>
</g>
<g>
</g>
<g>
</g>
</svg>
