<?xml version="1.0"?>
<svg xmlns="http://www.w3.org/2000/svg" viewBox="0 0 64 64" width="512" height="512"><g id="Poster"><path d="M53.934,54.326a.992.992,0,0,0,.054-.264c0-.022.012-.04.012-.062V2a1,1,0,0,0-1-1H11a1,1,0,0,0-1,1V62a1,1,0,0,0,1,1H45a1.007,1.007,0,0,0,.707-.293l8-8v0a.99.99,0,0,0,.193-.285C53.915,54.389,53.923,54.358,53.934,54.326ZM12,3H52V53H45a1,1,0,0,0-1,1v7H12ZM46,59.586V55h4.586Z"/><path d="M26,19h3.347L28.01,28.358a1,1,0,0,0,1.749.793l9-10.5A1,1,0,0,0,38,17H34.653L35.99,7.642a1,1,0,0,0-1.749-.793l-9,10.5A1,1,0,0,0,26,19Zm7.524-8.242-1.014,7.1A1,1,0,0,0,33.5,19h2.326l-5.35,6.242,1.014-7.1A1,1,0,0,0,30.5,17H28.174Z"/><path d="M19,45a1,1,0,0,0,1-1V39.667L22.2,42.6a1,1,0,1,0,1.6-1.2L22,39h1a1,1,0,0,0,1-1V33a1,1,0,0,0-1-1H19a1,1,0,0,0-1,1V44A1,1,0,0,0,19,45Zm1-11h2v3H20Z"/><path d="M41,42a1,1,0,0,0,1-1V38.848l2.063,5.5A1,1,0,0,0,45,45a1.029,1.029,0,0,0,.351-.063,1,1,0,0,0,.586-1.288l-2.774-7.4,2.544-2.545a1,1,0,0,0-1.414-1.414L42,34.586V33a1,1,0,0,0-2,0v8A1,1,0,0,0,41,42Z"/><path d="M26,42a1,1,0,0,0,.243-.03l4-1A1,1,0,0,0,31,40V33a1,1,0,0,0-1-1H26a1,1,0,0,0-1,1v8a1,1,0,0,0,1,1Zm1-8h2v5.219l-2,.5Z"/><path d="M38,35.121a1,1,0,0,0,1-1V33a1,1,0,0,0-1-1H34a1,1,0,0,0-1,1v7a1,1,0,0,0,.757.97l4,1A1,1,0,0,0,39,41V39.944a1,1,0,0,0-1.976-.219L35,39.219V34h2v.121A1,1,0,0,0,38,35.121Z"/><path d="M30,44a1,1,0,0,0,0,2h4a1,1,0,0,0,0-2Z"/><path d="M34,50H30a1,1,0,0,0,0,2h4a1,1,0,0,0,0-2Z"/><path d="M45,48a1,1,0,0,0-1-1H20a1,1,0,0,0,0,2H44A1,1,0,0,0,45,48Z"/><path d="M19,19h3a1,1,0,0,0,0-2H19a1,1,0,0,0,0,2Z"/><path d="M42,19h3a1,1,0,0,0,0-2H42a1,1,0,0,0,0,2Z"/><path d="M19,58H14a1,1,0,0,0,0,2h5a1,1,0,0,0,0-2Z"/><path d="M23,58H22a1,1,0,0,0,0,2h1a1,1,0,0,0,0-2Z"/></g></svg>
